HIERARCHY
ROOT Hips
{
  OFFSET -0.589095 22.1471 2.58842
  CHANNELS 6 Xposition Yposition Zposition Zrotation Xrotation Yrotation
  JOINT BN_Bip01_Pelvis
  {
    OFFSET -3.49357 -5.29363 -0.000213444
    CHANNELS 6 Xposition Yposition Zposition Zrotation Xrotation Yrotation
    JOINT BN_leg_R_01
    {
      OFFSET 10.8127 -7.82778 -6.29737
      CHANNELS 6 Xposition Yposition Zposition Zrotation Xrotation Yrotation
      JOINT BN_leg_R_02
      {
        OFFSET 8.91071 0 0
        CHANNELS 6 Xposition Yposition Zposition Zrotation Xrotation Yrotation
        JOINT BN_leg_R_03
        {
          OFFSET 15.6024 0 0
          CHANNELS 6 Xposition Yposition Zposition Zrotation Xrotation Yrotation
          JOINT BN_leg_R_04
          {
            OFFSET 9.68174 0 0
            CHANNELS 6 Xposition Yposition Zposition Zrotation Xrotation Yrotation
            JOINT BN_leg_R_05
            {
              OFFSET 10.6982 0 0
              CHANNELS 6 Xposition Yposition Zposition Zrotation Xrotation Yrotation
              JOINT BN_Leg_R_05Nub
              {
                OFFSET 11.1504 0 0
                CHANNELS 6 Xposition Yposition Zposition Zrotation Xrotation Yrotation
                End Site
                {
                  OFFSET 0 0 0
                }
              }
            }
          }
        }
      }
    }
    JOINT BN_leg_R_06
    {
      OFFSET 6.51511 -7.99898 -4.29089
      CHANNELS 6 Xposition Yposition Zposition Zrotation Xrotation Yrotation
      JOINT BN_Leg_R_07
      {
        OFFSET 9.03709 0 0
        CHANNELS 6 Xposition Yposition Zposition Zrotation Xrotation Yrotation
        JOINT BN_Leg_R_08
        {
          OFFSET 18.7638 0 0
          CHANNELS 6 Xposition Yposition Zposition Zrotation Xrotation Yrotation
          JOINT BN_Leg_R_09
          {
            OFFSET 10.9666 0 0
            CHANNELS 6 Xposition Yposition Zposition Zrotation Xrotation Yrotation
            JOINT BN_Leg_R_10
            {
              OFFSET 10.8726 0 0
              CHANNELS 6 Xposition Yposition Zposition Zrotation Xrotation Yrotation
              JOINT BN_Leg_R_10Nub
              {
                OFFSET 11.2648 0 0
                CHANNELS 6 Xposition Yposition Zposition Zrotation Xrotation Yrotation
                End Site
                {
                  OFFSET 0 0 0
                }
              }
            }
          }
        }
      }
    }
    JOINT BN_Leg_R_11
    {
      OFFSET 2.71429 -8.18693 -0.209972
      CHANNELS 6 Xposition Yposition Zposition Zrotation Xrotation Yrotation
      JOINT BN_Leg_R_12
      {
        OFFSET 9.8713 0 0
        CHANNELS 6 Xposition Yposition Zposition Zrotation Xrotation Yrotation
        JOINT BN_Leg_R_13
        {
          OFFSET 21.8657 0 0
          CHANNELS 6 Xposition Yposition Zposition Zrotation Xrotation Yrotation
          JOINT BN_Leg_R_14
          {
            OFFSET 11.0011 0 0
            CHANNELS 6 Xposition Yposition Zposition Zrotation Xrotation Yrotation
            JOINT BN_Leg_R_15
            {
              OFFSET 12.8798 0 0
              CHANNELS 6 Xposition Yposition Zposition Zrotation Xrotation Yrotation
              JOINT BN_Leg_R_15Nub
              {
                OFFSET 13.0642 0 0
                CHANNELS 6 Xposition Yposition Zposition Zrotation Xrotation Yrotation
                End Site
                {
                  OFFSET 0 0 0
                }
              }
            }
          }
        }
      }
    }
    JOINT BN_Leg_L_11
    {
      OFFSET 2.7143 8.18692 -0.209982
      CHANNELS 6 Xposition Yposition Zposition Zrotation Xrotation Yrotation
      JOINT BN_Leg_L_12
      {
        OFFSET 9.87129 0 0
        CHANNELS 6 Xposition Yposition Zposition Zrotation Xrotation Yrotation
        JOINT BN_Leg_L_13
        {
          OFFSET 21.8657 0 0
          CHANNELS 6 Xposition Yposition Zposition Zrotation Xrotation Yrotation
          JOINT BN_Leg_L_14
          {
            OFFSET 11.0011 0 0
            CHANNELS 6 Xposition Yposition Zposition Zrotation Xrotation Yrotation
            JOINT BN_Leg_L_15
            {
              OFFSET 12.8798 0 0
              CHANNELS 6 Xposition Yposition Zposition Zrotation Xrotation Yrotation
              JOINT BN_Leg_L_15Nub
              {
                OFFSET 13.0642 0 0
                CHANNELS 6 Xposition Yposition Zposition Zrotation Xrotation Yrotation
                End Site
                {
                  OFFSET 0 0 0
                }
              }
            }
          }
        }
      }
    }
    JOINT BN_leg_L_06
    {
      OFFSET 6.51511 7.99896 -4.29091
      CHANNELS 6 Xposition Yposition Zposition Zrotation Xrotation Yrotation
      JOINT BN_Leg_L_07
      {
        OFFSET 9.03709 0 0
        CHANNELS 6 Xposition Yposition Zposition Zrotation Xrotation Yrotation
        JOINT BN_Leg_L_08
        {
          OFFSET 18.7638 0 0
          CHANNELS 6 Xposition Yposition Zposition Zrotation Xrotation Yrotation
          JOINT BN_Leg_L_09
          {
            OFFSET 10.9666 0 0
            CHANNELS 6 Xposition Yposition Zposition Zrotation Xrotation Yrotation
            JOINT BN_Leg_L_10
            {
              OFFSET 10.8726 0 0
              CHANNELS 6 Xposition Yposition Zposition Zrotation Xrotation Yrotation
              JOINT BN_Leg_L_10Nub
              {
                OFFSET 11.2649 0 0
                CHANNELS 6 Xposition Yposition Zposition Zrotation Xrotation Yrotation
                End Site
                {
                  OFFSET 0 0 0
                }
              }
            }
          }
        }
      }
    }
    JOINT BN_leg_L_01
    {
      OFFSET 10.8127 7.82776 -6.29737
      CHANNELS 6 Xposition Yposition Zposition Zrotation Xrotation Yrotation
      JOINT BN_leg_L_02
      {
        OFFSET 8.91072 0 0
        CHANNELS 6 Xposition Yposition Zposition Zrotation Xrotation Yrotation
        JOINT BN_leg_L_03
        {
          OFFSET 15.6024 0 0
          CHANNELS 6 Xposition Yposition Zposition Zrotation Xrotation Yrotation
          JOINT BN_leg_L_04
          {
            OFFSET 9.68174 0 0
            CHANNELS 6 Xposition Yposition Zposition Zrotation Xrotation Yrotation
            JOINT BN_leg_L_05
            {
              OFFSET 10.6982 0 0
              CHANNELS 6 Xposition Yposition Zposition Zrotation Xrotation Yrotation
              JOINT BN_Leg_L_05Nub
              {
                OFFSET 11.1504 0 0
                CHANNELS 6 Xposition Yposition Zposition Zrotation Xrotation Yrotation
                End Site
                {
                  OFFSET 0 0 0
                }
              }
            }
          }
        }
      }
    }
    JOINT BN_Eye_L_01
    {
      OFFSET 28.5502 2.54627 -3.93739
      CHANNELS 6 Xposition Yposition Zposition Zrotation Xrotation Yrotation
      JOINT BN_Eye_L_02
      {
        OFFSET 2.30267 0 0
        CHANNELS 6 Xposition Yposition Zposition Zrotation Xrotation Yrotation
        JOINT BN_Eye_L_03
        {
          OFFSET 5.31894 0 0
          CHANNELS 6 Xposition Yposition Zposition Zrotation Xrotation Yrotation
          JOINT BN_Eye_L_04
          {
            OFFSET 9.71244 0 0
            CHANNELS 6 Xposition Yposition Zposition Zrotation Xrotation Yrotation
            End Site
            {
              OFFSET 0 0 0
            }
          }
        }
      }
    }
    JOINT BN_Eye_R_01
    {
      OFFSET 28.5502 -2.54612 -3.93738
      CHANNELS 6 Xposition Yposition Zposition Zrotation Xrotation Yrotation
      JOINT BN_Eye_R_02
      {
        OFFSET 2.30267 0 0
        CHANNELS 6 Xposition Yposition Zposition Zrotation Xrotation Yrotation
        JOINT BN_Eye_R_03
        {
          OFFSET 5.31896 0 0
          CHANNELS 6 Xposition Yposition Zposition Zrotation Xrotation Yrotation
          JOINT BN_Eye_R_04
          {
            OFFSET 9.71244 0 0
            CHANNELS 6 Xposition Yposition Zposition Zrotation Xrotation Yrotation
            End Site
            {
              OFFSET 0 0 0
            }
          }
        }
      }
    }
    JOINT BN_Arm_L_01
    {
      OFFSET 15.9737 8.03546 -8.36195
      CHANNELS 6 Xposition Yposition Zposition Zrotation Xrotation Yrotation
      JOINT BN_Arm_L_02
      {
        OFFSET 16.8869 0 0
        CHANNELS 6 Xposition Yposition Zposition Zrotation Xrotation Yrotation
        JOINT BN_Arm_L_03
        {
          OFFSET 8.42975 0 0
          CHANNELS 6 Xposition Yposition Zposition Zrotation Xrotation Yrotation
          JOINT BN_Arm_L_04
          {
            OFFSET 7.53864 -0.0312023 2.09083
            CHANNELS 6 Xposition Yposition Zposition Zrotation Xrotation Yrotation
            End Site
            {
              OFFSET 0 0 0
            }
          }
        }
      }
    }
    JOINT BN_Arm_R_01
    {
      OFFSET 14.7806 -6.70232 -9.44366
      CHANNELS 6 Xposition Yposition Zposition Zrotation Xrotation Yrotation
      JOINT BN_Arm_R_02
      {
        OFFSET 19.9827 0 0
        CHANNELS 6 Xposition Yposition Zposition Zrotation Xrotation Yrotation
        JOINT BN_Arm_R_03
        {
          OFFSET 17.4553 0 0
          CHANNELS 6 Xposition Yposition Zposition Zrotation Xrotation Yrotation
          JOINT BN_Arm_R_04
          {
            OFFSET 13.3834 -2.22657 7.3982
            CHANNELS 6 Xposition Yposition Zposition Zrotation Xrotation Yrotation
            End Site
            {
              OFFSET 0 0 0
            }
          }
        }
      }
    }
  }
}
MOTION
Frames:	4
Frame Time:	0.0333333
-20.7244 22.6378 -0.219456 -0 -0.00378757 -0 -3.49325 -8.0258 1.49012e-008 -163.39 -84.4569 153.045 10.8127 -7.82778 -6.29736 -119.037 29.9131 44.0179 8.91072 -1.90735e-006 -1.77636e-015 62.2641 0.0746728 1.32768 15.6024 -1.77636e-015 3.55271e-015 -81.002 6.40727 27.8343 9.68174 -3.8147e-006 5.32907e-015 -15.8598 0.598457 -9.51446 10.6982 3.8147e-006 -9.53674e-007 -29.013 4.11553 0.739982 11.1504 7.6294e-006 -9.53674e-007 1.73549e-007 1.20109e-005 1.88037e-007 6.5151 -7.99897 -4.29089 -151.429 17.2348 24.6082 9.03709 -9.53674e-007 0 103.894 -2.42045 -2.82752 18.7638 -9.53675e-007 -1.90735e-006 -87.6132 8.60682 23.3355 10.9665 -3.8147e-006 3.8147e-006 -20.6561 -0.579886 -0.933947 10.8726 0 0 -19.0245 -0.0165516 -2.12335 11.2648 3.8147e-006 0 4.76144e-007 -2.35138e-007 -3.43021e-008 2.71429 -8.18693 -0.209965 -137.012 32.892 -3.68144 9.87129 0 -1.90735e-006 62.9761 2.2568 -0.500566 21.8657 1.90735e-006 -1.90735e-006 -61.8222 1.51715 4.78169 11.0011 7.62939e-006 -1.90735e-006 -17.4722 -0.323997 -0.792821 12.8798 -3.81469e-006 -3.8147e-006 -26.449 -0.0312182 0.0716938 13.0642 3.81469e-006 1.90735e-006 8.32949e-007 1.07629e-005 -6.21626e-007 2.7143 8.18692 -0.209976 114.31 -35.6461 -25.2407 9.8713 1.77636e-015 -1.90735e-006 -46.0438 -2.37893 -0.330729 21.8657 -1.90735e-006 1.90735e-006 50.801 -1.95714 5.66215 11.0011 0 1.90735e-006 21.8709 0.348846 -0.904456 12.8798 3.8147e-006 0 31.8188 0.0307149 0.0312427 13.0642 0 7.10543e-015 -7.01985e-007 1.79299e-006 5.70396e-007 6.51512 7.99896 -4.2909 109.053 -25.8424 11.4887 9.03709 -9.53674e-007 1.90735e-006 -72.1689 1.78514 -2.74611 18.7638 -3.8147e-006 1.90735e-006 80.2117 -13.5984 21.1937 10.9666 7.10542e-015 1.90735e-006 34.3004 0.429958 -1.85658 10.8726 0 0 32.5081 0.0147379 -3.06095 11.2648 0 1.90735e-006 3.96044e-007 5.3527e-007 -7.49653e-009 10.8127 7.82776 -6.29737 92.576 -37.2453 45.2329 8.91072 -1.77636e-015 2.86102e-006 -42.5896 0.320461 0.76675 15.6024 3.8147e-006 0 58.505 -5.11018 19.1834 9.68174 -3.55271e-015 -9.53674e-007 23.8123 0.0789858 -11.6487 10.6982 0 -9.53674e-007 38.8145 -4.11631 -0.441438 11.1504 -3.8147e-006 -4.76837e-006 2.94581e-008 4.71495e-006 -3.15375e-008 28.5502 2.54627 -3.93738 89.995 -40.8534 50.3813 2.30267 3.55271e-015 2.38419e-007 -41.2041 0.980073 -6.44296 5.31895 -1.90735e-006 -3.57628e-007 -12.8811 2.21495 -7.45755 9.71243 3.55271e-015 -4.76837e-007 -19.1236 -0.00194525 3.10673 28.5502 -2.54612 -3.93737 89.9968 -39.1541 129.609 2.30267 -1.90735e-006 -4.76837e-007 -45.2309 -1.38101 6.09656 5.31894 -1.90735e-006 -8.88179e-016 -12.0804 0.0898791 5.93425 9.71243 -9.53675e-007 4.17233e-007 -22.5615 -1.21319 0.200211 15.9737 8.03546 -8.36195 56.5593 26.2117 3.73449 16.8869 -2.38419e-006 3.55271e-015 -51.5045 4.95735 -14.8467 8.42975 -3.55271e-015 -1.90735e-006 -25.5911 -3.58206e-006 1.13977e-005 7.53865 -0.031208 2.09083 -7.43618 -4.90694 -12.3517 14.7806 -6.70232 -9.44365 -41.6457 -48.8016 14.5155 19.9827 1.90735e-006 -1.90735e-006 36.1933 1.18591 -25.3426 17.4553 1.90735e-006 -1.43051e-006 25.0463 -3.83222 -0.105507 13.3835 -2.22654 7.39821 8.80083 1.66465 -20.5323 
-20.8971 22.5346 -0.219456 -0 -0.00378757 -0 -3.49325 -8.0258 1.49012e-008 -165.704 -84.9717 151.568 10.8127 -7.82778 -6.29736 -117.68 30.9152 43.0803 8.91072 -1.90735e-006 -3.55271e-015 62.0431 0.0695511 1.32795 15.6024 -7.10543e-015 0 -80.6251 6.78321 28.4361 9.68174 -3.8147e-006 -5.32907e-015 -16.3276 0.5594 -9.64982 10.6982 3.8147e-006 -9.53674e-007 -29.602 4.1163 0.673548 11.1504 7.6294e-006 -9.53674e-007 1.73549e-007 1.20109e-005 1.88037e-007 6.5151 -7.99897 -4.29089 -150.535 17.8215 24.1826 9.03709 -9.53674e-007 0 103.945 -2.42154 -2.82571 18.7638 -9.53675e-007 -1.90735e-006 -87.7605 8.78959 23.6515 10.9665 -3.8147e-006 3.8147e-006 -20.8521 -0.575773 -0.948965 10.8726 -7.10543e-015 3.55271e-015 -19.2164 -0.0142001 -2.13804 11.2648 3.8147e-006 -7.10543e-015 4.76144e-007 -2.35138e-007 -3.43021e-008 2.71429 -8.18693 -0.209965 -136.866 33.0818 -4.01371 9.87129 3.55271e-015 -1.90735e-006 63.1254 2.25549 -0.506442 21.8657 1.90735e-006 -1.90735e-006 -61.9207 1.75518 5.29108 11.0011 7.62939e-006 -1.90735e-006 -17.6569 -0.320803 -0.795866 12.8798 -3.81469e-006 -3.8147e-006 -26.6769 -0.0315031 0.0715692 13.0642 3.81469e-006 1.90735e-006 8.32949e-007 1.07629e-005 -6.21626e-007 2.7143 8.18692 -0.209976 115.455 -35.5807 -24.0198 9.8713 5.32907e-015 -1.90735e-006 -46.6865 -2.36299 -0.344554 21.8657 -1.90735e-006 1.90735e-006 51.396 -2.15965 6.01353 11.0011 -2.84217e-014 1.90735e-006 21.8133 0.349655 -0.904359 12.8798 3.8147e-006 0 31.7453 0.0306748 0.031282 13.0642 -2.84217e-014 -2.4869e-014 -7.01985e-007 1.79299e-006 5.70396e-007 6.51512 7.99896 -4.2909 108.855 -25.6059 11.7809 9.03709 -9.53674e-007 1.90735e-006 -72.0678 1.78269 -2.74761 18.7638 -3.8147e-006 1.90735e-006 80.0024 -14.1052 21.8133 10.9666 -1.42108e-014 1.90735e-006 34.6449 0.424851 -1.88041 10.8726 7.10542e-015 -7.10543e-015 32.8511 0.0152322 -3.0788 11.2648 0 1.90735e-006 3.96044e-007 5.3527e-007 -7.49653e-009 10.8127 7.82776 -6.29737 91.3197 -37.6161 44.7984 8.91072 -1.06581e-014 2.86102e-006 -41.768 0.330228 0.743203 15.6024 3.8147e-006 -1.77636e-015 57.4388 -5.71922 20.1482 9.68174 3.55271e-015 -9.53674e-007 24.3299 0.122079 -11.7834 10.6982 0 -9.53674e-007 39.4411 -4.11753 -0.521709 11.1504 -3.8147e-006 -4.76837e-006 2.94581e-008 4.71495e-006 -3.15375e-008 28.5502 2.54627 -3.93738 89.995 -40.8534 50.3813 2.30267 -3.55271e-015 2.38419e-007 -41.6366 1.02899 -6.59379 5.31895 -1.90735e-006 -3.57628e-007 -13.1561 2.28732 -7.70487 9.71243 7.10543e-015 -4.76837e-007 -19.1515 -0.0241864 2.91002 28.5502 -2.54612 -3.93737 89.9968 -39.1541 129.609 2.30267 -1.90735e-006 -4.76837e-007 -45.8335 -1.43835 6.09399 5.31894 -1.90735e-006 -3.55271e-015 -12.2769 0.00361833 6.30586 9.71243 -9.53675e-007 4.17233e-007 -22.6483 -1.24942 0.507 15.9737 8.03546 -8.36195 56.5193 26.2897 2.71047 16.8869 -2.38419e-006 0 -50.9986 4.88392 -14.4973 8.42975 -1.06581e-014 -1.90735e-006 -25.3104 0.0338293 0.243199 7.53865 -0.031208 2.09083 -7.44743 -4.96177 -11.2992 14.7806 -6.70232 -9.44365 -41.6511 -48.8033 14.0497 19.9827 1.90735e-006 -1.90735e-006 35.7795 1.1611 -25.2762 17.4553 1.90735e-006 -1.43051e-006 25.1853 -3.89 -0.261938 13.3835 -2.22654 7.39821 8.80321 1.70119 -16.6687 
-21.1828 22.2643 -0.219456 -0 -0.00378757 -0 -3.49325 -8.0258 1.49012e-008 -173.256 -86.3083 145.659 10.8127 -7.82778 -6.29736 -114.558 33.2377 40.5468 8.91072 -1.90735e-006 -2.84217e-014 61.5751 0.0586991 1.32848 15.6024 -1.95399e-014 3.55271e-015 -79.99 7.59987 29.6098 9.68174 -3.8147e-006 -1.24345e-014 -17.342 0.474806 -9.93409 10.6982 3.8147e-006 -9.53674e-007 -30.8779 4.11822 0.527934 11.1504 7.6294e-006 -9.53674e-007 1.73549e-007 1.20109e-005 1.88037e-007 6.5151 -7.99897 -4.29089 -148.444 19.5516 22.8225 9.03709 -9.53674e-007 0 103.945 -2.42154 -2.82571 18.7638 -9.53675e-007 -1.90735e-006 -88.2031 9.19524 24.4053 10.9665 -3.8147e-006 3.8147e-006 -21.2539 -0.57478 -0.976082 10.8726 0 0 -19.61 -0.0157855 -2.16775 11.2648 3.8147e-006 -7.10543e-015 4.76144e-007 -2.35138e-007 -3.43021e-008 2.71429 -8.18693 -0.209965 -136.064 33.703 -5.28807 9.87129 7.10543e-015 -1.90735e-006 63.2718 2.25419 -0.512202 21.8657 1.90735e-006 -1.90735e-006 -62.0099 2.27998 6.38703 11.0011 7.62939e-006 -1.90735e-006 -18.0809 -0.313759 -0.801725 12.8798 -3.81469e-006 -3.8147e-006 -27.1968 -0.032151 0.0712806 13.0642 3.81469e-006 1.90735e-006 8.32949e-007 1.07629e-005 -6.21626e-007 2.7143 8.18692 -0.209976 117.79 -35.2843 -21.3747 9.8713 7.10543e-015 -1.90735e-006 -47.7608 -2.34049 -0.371567 21.8657 -1.90735e-006 1.90735e-006 52.399 -2.52588 6.65979 11.0011 -7.10543e-014 1.90735e-006 21.7463 0.351825 -0.901158 12.8798 3.8147e-006 -3.55271e-015 31.6697 0.0306336 0.0313224 13.0642 0 -1.06581e-014 -7.01985e-007 1.79299e-006 5.70396e-007 6.51512 7.99896 -4.2909 108.673 -25.0295 12.584 9.03709 -9.53674e-007 1.90735e-006 -71.918 1.77784 -2.74229 18.7638 -3.8147e-006 1.90735e-006 79.6146 -15.1736 23.0621 10.9666 -7.10542e-015 1.90735e-006 35.4042 0.416233 -1.92806 10.8726 0 -7.10543e-015 33.6034 0.0138511 -3.12432 11.2648 1.42108e-014 1.90735e-006 3.96044e-007 5.3527e-007 -7.49653e-009 10.8127 7.82776 -6.29737 88.9812 -38.244 44.0798 8.91072 -1.77636e-015 2.86102e-006 -40.1856 0.347045 0.700423 15.6024 3.8147e-006 -1.06581e-014 55.3778 -7.0725 22.201 9.68174 -3.55271e-015 -9.53674e-007 25.398 0.214269 -12.058 10.6982 7.10543e-015 -9.53674e-007 40.7378 -4.1148 -0.681469 11.1504 -3.8147e-006 -4.76837e-006 2.94581e-008 4.71495e-006 -3.15375e-008 28.5502 2.54627 -3.93738 89.995 -40.8534 50.3813 2.30267 -3.55271e-015 2.38419e-007 -42.6344 1.13139 -6.84269 5.31895 -1.90735e-006 -3.57628e-007 -13.8863 2.42215 -8.15916 9.71243 7.10543e-015 -4.76837e-007 -19.2396 -0.085928 2.39051 28.5502 -2.54612 -3.93737 89.9968 -39.1541 129.609 2.30267 -1.90735e-006 -4.76837e-007 -47.1077 -1.55254 6.08015 5.31894 -1.90735e-006 7.10543e-015 -12.7855 -0.220296 7.27524 9.71243 -9.53675e-007 4.17233e-007 -22.714 -1.35164 1.31241 15.9737 8.03546 -8.36195 56.4685 26.4486 0.501095 16.8869 -2.38419e-006 -1.06581e-014 -50.5036 4.69067 -13.588 8.42975 -3.55271e-015 -1.90735e-006 -24.8261 0.133051 0.892284 7.53865 -0.031208 2.09083 -7.46166 -5.04626 -8.53792 14.7806 -6.70232 -9.44365 -41.9801 -48.88 12.8612 19.9827 1.90735e-006 -1.90735e-006 35.3959 1.09622 -25.0899 17.4553 1.90735e-006 -1.43051e-006 25.5957 -3.94512 -0.424014 13.3835 -2.22654 7.39821 8.80353 1.75434 -7.75285 
-21.5681 21.862 -0.219456 -0 -0.00378757 -0 -3.49325 -8.0258 1.49012e-008 160.632 -88.0927 121.82 10.8127 -7.82778 -6.29736 -109.745 36.4848 36.4389 8.91072 -1.90735e-006 -4.9738e-014 60.694 0.0382607 1.32922 15.6024 -7.10543e-015 3.55271e-015 -78.8547 8.82092 31.1681 9.68174 -3.8147e-006 -2.4869e-014 -18.8655 0.342744 -10.3481 10.6982 3.8147e-006 -9.53674e-007 -32.7617 4.11504 0.301923 11.1504 7.6294e-006 -9.53674e-007 1.73549e-007 1.20109e-005 1.88037e-007 6.5151 -7.99897 -4.29089 -145.271 22.2279 20.5939 9.03709 -9.53674e-007 -2.13163e-014 103.809 -2.41866 -2.83052 18.7638 -9.53675e-007 -1.90735e-006 -88.8369 9.776 25.4583 10.9665 -3.8147e-006 3.8147e-006 -21.7987 -0.566966 -1.01378 10.8726 0 -7.10543e-015 -20.1464 -0.0161276 -2.20874 11.2648 3.8147e-006 -2.13163e-014 4.76144e-007 -2.35138e-007 -3.43021e-008 2.71429 -8.18693 -0.209965 -134.674 34.6634 -7.36328 9.87129 0 -1.90735e-006 63.354 2.25346 -0.515436 21.8657 1.90735e-006 -1.90735e-006 -61.992 3.0596 7.93368 11.0011 7.62939e-006 -1.90735e-006 -18.7646 -0.301358 -0.813689 12.8798 -3.81469e-006 -3.8147e-006 -28.0359 -0.0331912 0.0708025 13.0642 3.81469e-006 1.90735e-006 8.32949e-007 1.07629e-005 -6.21626e-007 2.7143 8.18692 -0.209976 120.964 -34.7019 -17.6752 9.8713 -1.77636e-015 -1.90735e-006 -49.1118 -2.31228 -0.404902 21.8657 -1.90735e-006 1.90735e-006 53.6551 -3.00816 7.50229 11.0011 -1.42109e-013 1.90735e-006 21.6929 0.352312 -0.901718 12.8798 3.8147e-006 3.55271e-015 31.6007 0.0305959 0.0313591 13.0642 -1.42109e-014 -7.10543e-015 -7.01985e-007 1.79299e-006 5.70396e-007 6.51512 7.99896 -4.2909 108.466 -24.2275 13.7368 9.03709 -9.53674e-007 1.90735e-006 -71.6545 1.77311 -2.7366 18.7638 -3.8147e-006 1.90735e-006 79.1025 -16.6973 24.8366 10.9666 0 1.90735e-006 36.4083 0.404018 -1.99575 10.8726 0 -3.55271e-015 34.603 0.0154365 -3.18462 11.2648 0 1.90735e-006 3.96044e-007 5.3527e-007 -7.49653e-009 10.8127 7.82776 -6.29737 85.6526 -39.1435 42.868 8.91072 1.06581e-014 2.86102e-006 -37.7777 0.369872 0.636636 15.6024 3.8147e-006 -2.4869e-014 52.3706 -9.1413 25.1586 9.68174 0 -9.53674e-007 26.9024 0.342476 -12.4323 10.6982 0 -9.53674e-007 42.5463 -4.11524 -0.909417 11.1504 -3.8147e-006 -4.76837e-006 2.94581e-008 4.71495e-006 -3.15375e-008 28.5502 2.54627 -3.93738 89.995 -40.8534 50.3814 2.30267 -3.55271e-015 2.38419e-007 -44.0789 1.27853 -7.17389 5.31895 -1.90735e-006 -3.57628e-007 -14.9796 2.603 -8.77702 9.71243 -3.55271e-015 -4.76837e-007 -19.4069 -0.179265 1.60854 28.5502 -2.54612 -3.93737 89.9968 -39.1541 129.609 2.30267 -1.90735e-006 -4.76837e-007 -48.9259 -1.70686 6.05543 5.31894 -1.90735e-006 1.33227e-014 -13.5244 -0.552411 8.72271 9.71243 -9.53675e-007 4.17233e-007 -22.7684 -1.52282 2.51209 15.9737 8.03546 -8.36195 56.4202 26.6315 -2.64886 16.8869 -2.38419e-006 -3.01981e-014 -49.9988 4.39568 -12.2332 8.42975 -1.42109e-014 -1.90735e-006 -24.1736 0.278742 1.85515 7.53865 -0.031208 2.09083 -7.46929 -5.13507 -4.42673 14.7806 -6.70232 -9.44365 -42.5536 -48.9961 11.0936 19.9827 1.90735e-006 -1.90735e-006 35.0245 0.985444 -24.7923 17.4553 1.90735e-006 -1.43051e-006 26.2762 -4.00656 -0.591643 13.3835 -2.22654 7.39821 8.80073 1.76001 2.99049 
